<?xml version="1.0" encoding="UTF-8" standalone="no"?>
<!DOCTYPE svg PUBLIC "-//W3C//DTD SVG 1.1//EN" "http://www.w3.org/Graphics/SVG/1.1/DTD/svg11.dtd">
<svg width="100%" height="100%" viewBox="0 0 506 861" version="1.1" xmlns="http://www.w3.org/2000/svg" xmlns:xlink="http://www.w3.org/1999/xlink" xml:space="preserve" xmlns:serif="http://www.serif.com/" style="fill-rule:evenodd;clip-rule:evenodd;stroke-linejoin:round;stroke-miterlimit:2;">
    <g transform="matrix(10.3155,0,0,10.3155,-3852.83,-6230.56)">
        <g>
            <g>
                <g id="圖層-13" serif:id="圖層 13">
                    <g>
                        <g>
                            <g transform="matrix(0.320148,0,0,0.598182,-77.9922,-971.696)">
                                <path d="M1469.81,2688.13L1444.83,2651.39C1441.82,2647.97 1438.9,2645.31 1436.09,2643.42C1433.28,2641.53 1430.44,2640.2 1427.58,2639.43C1424.72,2638.66 1421.55,2638.18 1418.07,2637.97L1418.07,2634.14L1481.94,2634.14L1481.94,2638C1476.82,2638.24 1473.27,2639.13 1471.29,2640.66C1469.25,2642.24 1468.22,2644.01 1468.22,2645.95C1468.22,2648.51 1469.86,2652.19 1473.13,2656.99L1481.93,2670.09L1469.81,2688.13Z" style="fill:rgb(207,18,144);"/>
                            </g>
                            <g transform="matrix(0.320148,0,0,0.598182,-77.9922,-971.696)">
                                <path d="M1503.71,2702.53L1529.57,2741.04C1533.87,2747.38 1537.42,2752.42 1540.23,2756.15C1543.05,2759.88 1545.65,2762.72 1548.06,2764.66C1550.46,2766.6 1552.81,2767.91 1555.11,2768.57C1557.41,2769.24 1560.15,2769.62 1563.32,2769.72L1563.32,2773.56L1503.5,2773.56L1503.5,2769.72C1509.12,2769.62 1512.83,2768.75 1514.62,2767.12C1516.41,2765.48 1517.3,2763.18 1517.3,2760.21C1517.3,2759.7 1517.25,2759.22 1517.15,2758.76C1517.05,2758.3 1516.77,2757.63 1516.31,2756.76C1515.85,2755.89 1515.16,2754.79 1514.24,2753.47L1491.66,2720.26L1503.71,2702.53Z" style="fill:rgb(207,18,144);"/>
                            </g>
                            <g transform="matrix(-0.320148,0,0,0.598182,873.992,-971.696)">
                                <path d="M1473.13,2656.99C1469.86,2652.19 1468.22,2648.51 1468.22,2645.95C1468.22,2644.01 1469.25,2642.24 1471.29,2640.66C1473.34,2639.07 1477.07,2638.18 1482.49,2637.97L1482.49,2634.14L1418.07,2634.14L1418.07,2637.97C1421.55,2638.18 1424.72,2638.66 1427.58,2639.43C1430.44,2640.2 1433.28,2641.53 1436.09,2643.42C1438.9,2645.31 1441.82,2647.97 1444.83,2651.39L1514.24,2753.47C1515.16,2754.79 1515.85,2755.89 1516.31,2756.76C1516.77,2757.63 1517.05,2758.3 1517.15,2758.76C1517.25,2759.22 1517.3,2759.7 1517.3,2760.21C1517.3,2763.18 1516.41,2765.48 1514.62,2767.12C1512.83,2768.75 1509.12,2769.62 1503.5,2769.72L1503.5,2773.56L1563.32,2773.56L1563.32,2769.72C1560.15,2769.62 1557.41,2769.24 1555.11,2768.57C1552.81,2767.91 1550.46,2766.6 1548.06,2764.66C1545.65,2762.72 1543.05,2759.88 1540.23,2756.15C1537.42,2752.42 1533.87,2747.38 1529.57,2741.04L1473.13,2656.99Z" style="fill:white;"/>
                            </g>
                        </g>
                    </g>
                </g>
            </g>
        </g>
    </g>
</svg>
